<?xml version="1.0" encoding="iso-8859-1"?>
<!-- Generator: Adobe Illustrator 18.0.0, SVG Export Plug-In . SVG Version: 6.00 Build 0)  -->
<!DOCTYPE svg PUBLIC "-//W3C//DTD SVG 1.1//EN" "http://www.w3.org/Graphics/SVG/1.1/DTD/svg11.dtd">
<svg version="1.1" id="Capa_1" xmlns="http://www.w3.org/2000/svg" xmlns:xlink="http://www.w3.org/1999/xlink" x="0px" y="0px"
	 viewBox="0 0 198.558 198.558" style="enable-background:new 0 0 198.558 198.558;" xml:space="preserve">
<g>
	<path d="M168.369,29.129H30.189c-4.143,0-7.5,3.358-7.5,7.5v154.429c0,4.142,3.357,7.5,7.5,7.5h138.18c4.143,0,7.5-3.358,7.5-7.5
		V36.629C175.869,32.487,172.511,29.129,168.369,29.129z M37.689,44.129h54.09v139.429h-54.09V44.129z M160.869,183.558h-54.09
		V44.129h54.09V183.558z"/>
	<path d="M64.734,15h69.09c4.143,0,7.5-3.358,7.5-7.5s-3.357-7.5-7.5-7.5h-69.09c-4.143,0-7.5,3.358-7.5,7.5S60.591,15,64.734,15z"
		/>
</g>
<g>
</g>
<g>
</g>
<g>
</g>
<g>
</g>
<g>
</g>
<g>
</g>
<g>
</g>
<g>
</g>
<g>
</g>
<g>
</g>
<g>
</g>
<g>
</g>
<g>
</g>
<g>
</g>
<g>
</g>
</svg>
